<svg width="14" height="13" viewBox="0 0 14 13" fill="none" xmlns="http://www.w3.org/2000/svg">
<path d="M2.34989 10.3671C1.64099 9.71969 1.64099 8.66631 2.34989 8.01893L4.92158 5.6704C5.26502 5.35682 5.72155 5.18411 6.20724 5.18411C6.69294 5.18411 7.14952 5.35682 7.49291 5.6704L8.77917 4.49576C8.09223 3.86837 7.17881 3.52289 6.2073 3.52289C5.23579 3.52289 4.32237 3.86837 3.63537 4.49576L1.06362 6.84428C-0.354538 8.13937 -0.354538 10.2466 1.06362 11.5417C1.77269 12.1893 2.70412 12.513 3.63555 12.513C4.56698 12.513 5.49841 12.1893 6.20748 11.5417L4.92121 10.3671C4.21226 11.0144 3.05884 11.0144 2.34989 10.3671Z" fill="#212121"/>
<path d="M10.0655 0C9.09393 0 8.18051 0.345482 7.49357 0.972875L8.77984 2.14753C9.12322 1.83389 9.57981 1.66123 10.0655 1.66123C10.5511 1.66123 11.0077 1.83395 11.3511 2.14753C12.0599 2.79492 12.0599 3.84831 11.3511 4.49569L8.77941 6.84429C8.43603 7.15793 7.97944 7.33059 7.49381 7.33059C7.00812 7.33059 6.55153 7.15787 6.20815 6.84429L4.92188 8.01895C5.60888 8.64634 6.52224 8.99182 7.49381 8.99182C8.46532 8.99182 9.37874 8.64634 10.0657 8.01895L12.6374 5.6704C14.0555 4.37531 14.0555 2.26803 12.6374 0.97293C11.9504 0.345482 11.037 0 10.0655 0Z" fill="#212121"/>
</svg>
