<svg width="16" height="16" viewBox="0 0 16 16" fill="none" xmlns="http://www.w3.org/2000/svg">
<g clip-path="url(#clip0_442_22)">
<path d="M14.4961 3.57629L14.1428 2.51733C14.0083 2.11401 13.6322 1.84302 13.2072 1.84302H10.2381V0.876343C10.2381 0.393188 9.84523 0 9.3622 0H6.64321C6.1603 0 5.76735 0.393188 5.76735 0.876343V1.84302H2.79836C2.37319 1.84302 1.99709 2.11401 1.86257 2.51733L1.50929 3.57629C1.42885 3.81738 1.46962 4.08435 1.61818 4.29053C1.76674 4.4967 2.0071 4.61987 2.26125 4.61987H2.63051L3.44325 14.67C3.50368 15.4158 4.13649 16 4.88417 16H11.2861C12.0337 16 12.6666 15.4158 12.7269 14.6699L13.5397 4.61987H13.7442C13.9983 4.61987 14.2387 4.4967 14.3872 4.29065C14.5358 4.08447 14.5766 3.81738 14.4961 3.57629ZM6.70485 0.9375H9.30055V1.84302H6.70485V0.9375ZM11.7925 14.5944C11.7713 14.8569 11.5488 15.0625 11.2861 15.0625H4.88417C4.62148 15.0625 4.39906 14.8569 4.37782 14.5944L3.57106 4.61987H12.5991L11.7925 14.5944ZM2.4623 3.68237L2.75197 2.81396C2.75856 2.79395 2.77724 2.78052 2.79836 2.78052H13.2072C13.2283 2.78052 13.2468 2.79395 13.2536 2.81396L13.5432 3.68237H2.4623Z" fill="#5F5F5F"/>
<path d="M10.2974 14.5612C10.3057 14.5617 10.3139 14.5618 10.3222 14.5618C10.5699 14.5618 10.7769 14.3677 10.7898 14.1175L11.23 5.66755C11.2434 5.409 11.0447 5.18842 10.7863 5.17499C10.5271 5.1612 10.3073 5.36017 10.2937 5.61872L9.85367 14.0687C9.84024 14.3272 10.0389 14.5478 10.2974 14.5612Z" fill="#5F5F5F"/>
<path d="M5.23654 14.1185C5.25021 14.3684 5.457 14.5617 5.70419 14.5617C5.71274 14.5617 5.72153 14.5615 5.73019 14.561C5.98862 14.547 6.18674 14.326 6.1727 14.0675L5.71164 5.61754C5.6976 5.35899 5.47665 5.16087 5.21811 5.17503C4.95969 5.18907 4.76157 5.41002 4.7756 5.66856L5.23654 14.1185Z" fill="#5F5F5F"/>
<path d="M8.00806 14.5618C8.26697 14.5618 8.47681 14.3519 8.47681 14.093V5.64307C8.47681 5.38416 8.26697 5.17432 8.00806 5.17432C7.74915 5.17432 7.53931 5.38416 7.53931 5.64307V14.093C7.53931 14.3519 7.74915 14.5618 8.00806 14.5618Z" fill="#5F5F5F"/>
</g>
<defs>
<clipPath id="clip0_442_22">
<rect width="16" height="16" fill="white"/>
</clipPath>
</defs>
</svg>
