<svg width="16" height="16" viewBox="0 0 16 16" fill="none" xmlns="http://www.w3.org/2000/svg">
<g clip-path="url(#clip0_442_0)">
<path d="M13.1427 8C12.8271 8 12.5712 8.25583 12.5712 8.57143V14.2856C12.5712 14.6012 12.3154 14.857 11.9998 14.857H1.71426C1.39866 14.857 1.14283 14.6012 1.14283 14.2856V2.85721C1.14283 2.54161 1.39866 2.28578 1.71426 2.28578H8.57131C8.88691 2.28578 9.14275 2.02994 9.14275 1.71434C9.14275 1.39874 8.88691 1.14294 8.57131 1.14294H1.71426C0.767501 1.14294 0 1.91045 0 2.85721V14.2856C0 15.2324 0.767501 15.9999 1.71426 15.9999H11.9998C12.9466 15.9999 13.7141 15.2324 13.7141 14.2856V8.5714C13.7141 8.25583 13.4583 8 13.1427 8Z" fill="#5F5F5F"/>
<path d="M15.3596 0.640904C14.9493 0.230552 14.3928 6.41473e-05 13.8125 0.000131111C13.2319 -0.00154297 12.6749 0.229347 12.2657 0.641272L4.73894 8.16742C4.6765 8.23034 4.62939 8.30681 4.60123 8.39085L3.4584 11.8194C3.35866 12.1188 3.52054 12.4424 3.81997 12.5421C3.87806 12.5614 3.93889 12.5713 4.0001 12.5714C4.06144 12.5713 4.12241 12.5614 4.18067 12.5422L7.60919 11.3994C7.6934 11.3713 7.7699 11.3239 7.83262 11.2611L15.3594 3.73438C16.2137 2.88019 16.2138 1.49519 15.3596 0.640904ZM14.5514 2.92693L7.1229 10.3554L4.9035 11.0965L5.64234 8.87998L13.0737 1.45153C13.4822 1.04379 14.144 1.04446 14.5517 1.453C14.7465 1.64817 14.8562 1.91237 14.8571 2.18809C14.8578 2.46529 14.7477 2.73127 14.5514 2.92693Z" fill="#5F5F5F"/>
</g>
<defs>
<clipPath id="clip0_442_0">
<rect width="16" height="16" fill="white"/>
</clipPath>
</defs>
</svg>
