<svg width="31" height="31" viewBox="0 0 31 31" fill="none" xmlns="http://www.w3.org/2000/svg">
<path d="M31 18.4062C31 17.63 30.6913 16.9066 30.1591 16.3731C30.7624 15.7131 31.0698 14.8283 30.9858 13.9073C30.8346 12.2656 29.3557 10.9791 27.6171 10.9791H19.6385C20.0337 9.77914 20.6666 7.57947 20.6666 5.81247C20.6666 3.01085 18.2861 0.645828 16.7916 0.645828C15.4509 0.645828 14.4912 1.40145 14.4511 1.43245C14.2974 1.55518 14.2083 1.74118 14.2083 1.93747V6.3175L10.487 14.3762L10.3333 14.455V14.2083C10.3333 13.8518 10.0439 13.5624 9.68744 13.5624H3.22915C1.44798 13.5625 0 15.0105 0 16.7916V27.125C0 28.9062 1.44798 30.3541 3.22915 30.3541H7.10415C8.50042 30.3541 9.69392 29.4629 10.1434 28.219C11.2181 28.7719 12.6648 29.0625 13.5625 29.0625H25.4187C26.8254 29.0625 28.0563 28.1144 28.3456 26.8072C28.4941 26.133 28.4076 25.4548 28.1131 24.8658C29.0664 24.3866 29.7084 23.4011 29.7084 22.2812C29.7084 21.824 29.6037 21.3861 29.4061 20.9908C30.3594 20.5103 31 19.5261 31 18.4062ZM28.2759 20.0001C28.0266 20.0299 27.816 20.199 27.736 20.438C27.6572 20.677 27.7231 20.9391 27.9065 21.1122C28.2346 21.421 28.4167 21.8369 28.4167 22.2812C28.4167 23.0962 27.8006 23.7809 26.9856 23.8751C26.7363 23.9049 26.5257 24.074 26.4457 24.313C26.3669 24.552 26.4328 24.8141 26.6162 24.9872C27.0411 25.3876 27.2116 25.9495 27.0838 26.5282C26.9249 27.249 26.2248 27.7708 25.4188 27.7708H13.5625C12.5136 27.7708 10.7544 27.2787 10.1448 26.6677C9.96002 26.4843 9.68102 26.4301 9.44077 26.5282C9.19925 26.6277 9.04165 26.8641 9.04165 27.125C9.04165 28.1932 8.17237 29.0625 7.10415 29.0625H3.22915C2.16092 29.0625 1.29165 28.1932 1.29165 27.125V16.7916C1.29165 15.7234 2.16092 14.8541 3.22915 14.8541H9.04165V15.5C9.04165 15.7235 9.1579 15.9314 9.34904 16.0502C9.53765 16.1639 9.77529 16.1755 9.97679 16.0774L11.2684 15.4315C11.3989 15.3669 11.5035 15.2584 11.5655 15.1254L15.4405 6.72952C15.4793 6.64427 15.4999 6.55127 15.4999 6.45827V2.2875C15.7686 2.13897 16.235 1.93747 16.7916 1.93747C17.4995 1.93747 19.375 3.69672 19.375 5.81247C19.375 8.08583 18.1376 11.3627 18.126 11.3951C18.0511 11.5927 18.0769 11.8162 18.197 11.9918C18.3184 12.1662 18.5174 12.2708 18.7291 12.2708H27.6171C28.6944 12.2708 29.6089 13.042 29.6993 14.0262C29.7677 14.7625 29.4138 15.4626 28.7796 15.8539C28.582 15.9753 28.4645 16.1949 28.4735 16.4287C28.4825 16.6625 28.6169 16.8717 28.8235 16.979C29.3699 17.2567 29.7083 17.8043 29.7083 18.4062C29.7084 19.2212 29.0922 19.9059 28.2759 20.0001Z" fill="black"/>
<path d="M9.68785 14.8542C9.33135 14.8542 9.04199 15.1435 9.04199 15.5V27.125C9.04199 27.4815 9.33135 27.7709 9.68785 27.7709C10.0443 27.7709 10.3337 27.4815 10.3337 27.125V15.5C10.3337 15.1435 10.0443 14.8542 9.68785 14.8542Z" fill="black"/>
</svg>
