<svg width="13" height="13" viewBox="0 0 13 13" fill="none" xmlns="http://www.w3.org/2000/svg">
<g clip-path="url(#clip0_437_43110)">
<path d="M10.2744 8.05304C10.0083 7.77592 9.68725 7.62776 9.34702 7.62776C9.00955 7.62776 8.68578 7.77318 8.40867 8.0503L7.54164 8.91457C7.47031 8.87616 7.39897 8.84049 7.33038 8.80482C7.2316 8.75544 7.13832 8.70879 7.05875 8.65941C6.2466 8.14358 5.50853 7.47137 4.80065 6.6016C4.45768 6.16809 4.22721 5.80317 4.05984 5.43277C4.28483 5.22699 4.49335 5.01298 4.69639 4.8072C4.77321 4.73037 4.85004 4.6508 4.92686 4.57398C5.50305 3.9978 5.50305 3.2515 4.92686 2.67531L4.17782 1.92627C4.09276 1.84122 4.00496 1.75342 3.92265 1.66562C3.75803 1.49551 3.58517 1.31991 3.40683 1.15528C3.14069 0.891884 2.82241 0.751953 2.48768 0.751953C2.15294 0.751953 1.82918 0.891884 1.55481 1.15528C1.55206 1.15803 1.55206 1.15803 1.54932 1.16077L0.616447 2.10187C0.265248 2.45307 0.0649555 2.88109 0.0210557 3.37771C-0.044794 4.17888 0.191168 4.92518 0.372254 5.41356C0.81674 6.61258 1.48072 7.72379 2.47121 8.91457C3.67297 10.3496 5.11892 11.4827 6.77065 12.2811C7.40171 12.5802 8.24404 12.9342 9.18514 12.9945C9.24276 12.9973 9.30313 13 9.358 13C9.9918 13 10.5241 12.7723 10.9411 12.3196C10.9439 12.3141 10.9494 12.3113 10.9521 12.3058C11.0948 12.133 11.2594 11.9766 11.4323 11.8092C11.5502 11.6967 11.671 11.5787 11.789 11.4553C12.0606 11.1727 12.2033 10.8434 12.2033 10.5059C12.2033 10.1657 12.0578 9.83921 11.7807 9.56484L10.2744 8.05304ZM11.2567 10.9422C11.2539 10.9422 11.2539 10.9449 11.2567 10.9422C11.1497 11.0574 11.0399 11.1617 10.9219 11.2769C10.7436 11.447 10.5625 11.6254 10.3924 11.8257C10.1153 12.122 9.78877 12.2619 9.36074 12.2619C9.31959 12.2619 9.27569 12.2619 9.23453 12.2592C8.41964 12.2071 7.66237 11.8888 7.09442 11.6172C5.54146 10.8654 4.17782 9.79806 3.04466 8.4454C2.10904 7.31772 1.48347 6.2751 1.06916 5.15565C0.813996 4.47246 0.720709 3.94018 0.761865 3.43807C0.789303 3.11706 0.912771 2.85091 1.1405 2.62318L2.07612 1.68757C2.21056 1.56136 2.35323 1.49276 2.49316 1.49276C2.66602 1.49276 2.80595 1.59702 2.89375 1.68482C2.89649 1.68757 2.89924 1.69031 2.90198 1.69306C3.06935 1.84945 3.22849 2.01133 3.39585 2.18418C3.48091 2.27198 3.56871 2.35978 3.65651 2.45033L4.40555 3.19937C4.69639 3.4902 4.69639 3.75909 4.40555 4.04993C4.32598 4.1295 4.24916 4.20906 4.16959 4.28589C3.93912 4.52185 3.71962 4.74135 3.48091 4.95536C3.47542 4.96085 3.46994 4.96359 3.46719 4.96908C3.23123 5.20504 3.27513 5.43551 3.32452 5.59191C3.32726 5.60014 3.33001 5.60837 3.33275 5.6166C3.52755 6.08852 3.80193 6.53301 4.21898 7.06255L4.22172 7.0653C4.97899 7.99817 5.77742 8.72526 6.65816 9.28224C6.77065 9.35357 6.88589 9.41119 6.99564 9.46607C7.09441 9.51545 7.1877 9.5621 7.26727 9.61148C7.27825 9.61697 7.28922 9.6252 7.3002 9.63069C7.39348 9.67733 7.48128 9.69928 7.57183 9.69928C7.79956 9.69928 7.94223 9.55661 7.98887 9.50996L8.92723 8.57161C9.02052 8.47832 9.16868 8.36583 9.34154 8.36583C9.51165 8.36583 9.65158 8.47283 9.73664 8.56612C9.73938 8.56886 9.73938 8.56886 9.74212 8.57161L11.2539 10.0834C11.5365 10.3633 11.5365 10.6514 11.2567 10.9422Z" fill="#5F5F5F"/>
<path d="M7.02559 3.09246C7.74445 3.21318 8.39746 3.55341 8.91878 4.07472C9.44009 4.59603 9.77757 5.24904 9.90103 5.9679C9.93122 6.14899 10.0876 6.2752 10.266 6.2752C10.2879 6.2752 10.3071 6.27245 10.3291 6.26971C10.5321 6.23678 10.6665 6.04472 10.6336 5.84169C10.4855 4.97192 10.0739 4.17898 9.44557 3.55066C8.81726 2.92235 8.02432 2.51079 7.15455 2.36262C6.95151 2.3297 6.76219 2.46414 6.72653 2.66444C6.69086 2.86473 6.82256 3.05953 7.02559 3.09246Z" fill="#5F5F5F"/>
<path d="M12.9834 5.73457C12.7392 4.30234 12.0642 2.99907 11.0271 1.96193C9.98996 0.9248 8.68669 0.24984 7.25445 0.00564702C7.05416 -0.0300216 6.86484 0.107165 6.82917 0.307458C6.79625 0.510495 6.93069 0.699813 7.13373 0.735482C8.41231 0.952237 9.5784 1.5586 10.5058 2.48324C11.4332 3.41063 12.0368 4.57672 12.2535 5.8553C12.2837 6.03639 12.4401 6.1626 12.6185 6.1626C12.6404 6.1626 12.6596 6.15985 12.6816 6.15711C12.8819 6.12693 13.019 5.93487 12.9834 5.73457Z" fill="#5F5F5F"/>
</g>
<defs>
<clipPath id="clip0_437_43110">
<rect width="13" height="13" fill="white"/>
</clipPath>
</defs>
</svg>
